<svg width="500" height="500" viewBox="0 0 500 500" fill="none" xmlns="http://www.w3.org/2000/svg">
<g clip-path="url(#clip0_61_88)">
<path d="M250 0C111.931 0 0 111.931 0 250C0 388.069 111.931 500 250 500C388.069 500 500 388.069 500 250C500 111.931 388.069 0 250 0ZM28.4722 263.889H83.7917C85.0694 298.694 91.0417 331.542 100.861 361.111H57.75C40.9861 332.181 30.6667 299.181 28.4722 263.889V263.889ZM263.889 111.111V28.9028C302.042 34.9583 335.583 65.7778 358.319 111.111H263.889ZM370.153 138.889C380.625 167.819 387.083 200.833 388.444 236.111H263.889V138.889H370.153ZM236.111 28.9028V111.111H141.681C164.403 65.7778 197.958 34.9583 236.111 28.9028ZM236.111 138.889V236.111H111.556C112.917 200.833 119.375 167.819 129.847 138.889H236.111ZM83.8056 236.111H28.4722C30.6667 200.833 40.9861 167.819 57.7361 138.889H100.847C91.0556 168.458 85.0833 201.319 83.8056 236.111ZM111.556 263.889H236.111V361.111H129.847C119.375 332.181 112.917 299.181 111.556 263.889ZM236.111 388.889V471.097C197.958 465.028 164.403 434.222 141.681 388.889H236.111V388.889ZM263.889 471.097V388.889H358.333C335.597 434.222 302.042 465.028 263.889 471.097ZM263.889 361.111V263.889H388.458C387.083 299.181 380.639 332.181 370.167 361.111H263.889ZM416.208 263.889H471.514C469.333 299.181 459.014 332.181 442.25 361.111H399.139C408.944 331.542 414.917 298.694 416.208 263.889ZM416.208 236.111C414.917 201.319 408.944 168.458 399.139 138.889H442.25C459.014 167.819 469.333 200.833 471.514 236.111H416.208ZM423.319 111.111H388.556C378.597 88.8333 366.25 69.2361 352.181 52.7917C379.806 67.125 404.014 87.0417 423.319 111.111ZM147.819 52.7917C133.736 69.2361 121.389 88.8333 111.431 111.111H76.6806C95.9861 87.0417 120.194 67.1389 147.819 52.7917ZM76.6806 388.889H111.444C121.389 411.167 133.736 430.764 147.819 447.194C120.194 432.861 95.9861 412.958 76.6806 388.889ZM352.181 447.194C366.264 430.75 378.597 411.167 388.556 388.889H423.319C404.014 412.958 379.806 432.861 352.181 447.194Z" fill="#D8EEFE"/>
</g>
<defs>
<clipPath id="clip0_61_88">
<rect width="500" height="500" fill="white"/>
</clipPath>
</defs>
</svg>
