<svg width="72" height="72" viewBox="0 0 72 72" fill="none" xmlns="http://www.w3.org/2000/svg">
<path d="M69.913 35.8321C69.913 34.8261 69.673 33.8821 69.271 33.0241C66.589 24.3721 54.033 25.0041 36.173 24.5821C33.187 24.5121 34.895 20.9861 35.943 13.2461C36.625 8.21205 33.379 0.482056 27.923 0.482056C18.927 0.482056 27.581 7.57805 19.627 25.1261C15.377 34.5021 5.87695 29.2501 5.87695 38.6681V60.106C5.87695 63.772 6.23695 67.296 11.393 67.876C16.391 68.438 15.267 72 22.477 72H58.565C62.241 72 65.231 69.008 65.231 65.332C65.231 63.808 64.697 62.4201 63.835 61.2961C65.875 60.1541 67.275 57.9981 67.275 55.4981C67.275 53.9781 66.743 52.59 65.883 51.468C67.929 50.328 69.333 48.1701 69.333 45.6661C69.333 43.8481 68.597 42.2001 67.411 40.9941C68.925 39.7721 69.913 37.9241 69.913 35.8321Z" fill="#FFDB5E"/>
<path d="M46.041 42.498H63.249C65.589 42.498 67.785 41.246 68.981 39.232C69.473 38.402 69.199 37.328 68.367 36.834C67.537 36.34 66.463 36.618 65.969 37.448C65.403 38.406 64.357 38.998 63.247 38.998H45.627C43.881 38.998 42.461 37.578 42.461 35.832C42.461 34.086 43.881 32.666 45.627 32.666H57.401C58.367 32.666 59.151 31.882 59.151 30.916C59.151 29.95 58.367 29.166 57.401 29.166H45.625C41.949 29.166 38.959 32.156 38.959 35.832C38.959 37.882 39.909 39.696 41.369 40.92C40.139 42.13 39.373 43.81 39.373 45.666C39.373 47.722 40.329 49.542 41.797 50.764C40.575 51.972 39.817 53.646 39.817 55.498C39.817 57.738 40.935 59.714 42.635 60.924C41.587 62.102 40.931 63.636 40.931 65.332C40.931 69.008 43.921 71.998 47.597 71.998H58.565C60.905 71.998 63.103 70.748 64.299 68.734C64.793 67.904 64.519 66.83 63.689 66.336C62.857 65.846 61.783 66.116 61.291 66.946C60.721 67.904 59.675 68.498 58.565 68.498H47.597C45.851 68.498 44.431 67.078 44.431 65.332C44.431 63.586 45.851 62.166 47.597 62.166H60.609C62.949 62.166 65.149 60.914 66.343 58.9C66.837 58.068 66.563 56.994 65.733 56.502C64.895 56 63.825 56.282 63.335 57.112C62.757 58.086 61.737 58.666 60.609 58.666H46.483C44.737 58.666 43.317 57.244 43.317 55.498C43.317 53.752 44.737 52.332 46.483 52.332H62.665C65.005 52.332 67.203 51.082 68.399 49.068C68.893 48.238 68.619 47.164 67.789 46.67C66.955 46.178 65.883 46.45 65.391 47.28C64.813 48.252 63.793 48.832 62.665 48.832H46.041C44.295 48.832 42.875 47.412 42.875 45.666C42.875 43.92 44.293 42.498 46.041 42.498Z" fill="#EE9547"/>
</svg>
