<svg width="396" height="99" viewBox="0 0 396 99" fill="none" xmlns="http://www.w3.org/2000/svg">
<g clip-path="url(#clip0_61_128)">
<path d="M393.156 48.8114C393.156 47.441 392.829 46.1551 392.281 44.9863C388.627 33.2003 371.523 34.0612 347.194 33.4863C343.126 33.391 345.453 28.5878 346.881 18.0441C347.81 11.1866 343.388 0.656616 335.956 0.656616C323.701 0.656616 335.49 10.323 324.654 34.2274C318.865 46.9996 305.924 39.8452 305.924 52.6747V81.8782C305.924 86.8721 306.414 91.6726 313.438 92.4627C320.246 93.2283 318.715 98.0805 328.537 98.0805H377.697C382.705 98.0805 386.778 94.0047 386.778 88.9972C386.778 86.9211 386.05 85.0304 384.876 83.4992C387.655 81.9436 389.562 79.0066 389.562 75.601C389.562 73.5304 388.837 71.6396 387.666 70.1112C390.453 68.5583 392.365 65.6186 392.365 62.2076C392.365 59.731 391.363 57.4861 389.747 55.8432C391.81 54.1786 393.156 51.6612 393.156 48.8114Z" fill="#FFDB5E"/>
<path d="M360.638 57.892H384.079C387.266 57.892 390.258 56.1865 391.887 53.443C392.557 52.3123 392.184 50.8493 391.051 50.1763C389.92 49.5034 388.457 49.8821 387.784 51.0128C387.013 52.3178 385.588 53.1242 384.076 53.1242H360.074C357.695 53.1242 355.761 51.1898 355.761 48.8114C355.761 46.4329 357.695 44.4986 360.074 44.4986H376.112C377.428 44.4986 378.496 43.4306 378.496 42.1147C378.496 40.7988 377.428 39.7308 376.112 39.7308H360.071C355.063 39.7308 350.99 43.8038 350.99 48.8114C350.99 51.604 352.284 54.075 354.273 55.7424C352.598 57.3907 351.554 59.6793 351.554 62.2076C351.554 65.0083 352.856 67.4876 354.856 69.1522C353.192 70.7978 352.159 73.0781 352.159 75.601C352.159 78.6524 353.682 81.3441 355.998 82.9924C354.57 84.5971 353.677 86.6868 353.677 88.9971C353.677 94.0047 357.75 98.0778 362.757 98.0778H377.698C380.886 98.0778 383.88 96.375 385.509 93.6315C386.182 92.5008 385.809 91.0378 384.678 90.3648C383.545 89.6973 382.082 90.0651 381.412 91.1958C380.635 92.5008 379.21 93.31 377.698 93.31H362.757C360.379 93.31 358.444 91.3756 358.444 88.9971C358.444 86.6187 360.379 84.6843 362.757 84.6843H380.483C383.67 84.6843 386.667 82.9788 388.294 80.2353C388.966 79.1019 388.593 77.6389 387.463 76.9687C386.321 76.2848 384.863 76.669 384.196 77.7996C383.409 79.1264 382.019 79.9165 380.483 79.9165H361.24C358.861 79.9165 356.927 77.9794 356.927 75.601C356.927 73.2225 358.861 71.2882 361.24 71.2882H383.283C386.471 71.2882 389.465 69.5854 391.094 66.8419C391.767 65.7112 391.394 64.2482 390.263 63.5752C389.127 62.905 387.667 63.2755 386.997 64.4062C386.209 65.7303 384.82 66.5204 383.283 66.5204H360.638C358.259 66.5204 356.325 64.586 356.325 62.2076C356.325 59.8291 358.256 57.892 360.638 57.892Z" fill="#EE9547"/>
</g>
<g clip-path="url(#clip1_61_128)">
<path d="M49.0402 0C21.9564 0 0 21.9564 0 49.0402C0 76.1241 21.9564 98.0805 49.0402 98.0805C76.1241 98.0805 98.0805 76.1241 98.0805 49.0402C98.0805 21.9564 76.1241 0 49.0402 0ZM5.58514 51.7647H16.4367C16.6873 58.5922 17.8588 65.0355 19.785 70.8359H11.3283C8.03988 65.1609 6.0156 58.6876 5.58514 51.7647ZM51.7647 21.7957V5.6696C59.2488 6.85746 65.8284 12.903 70.2883 21.7957H51.7647ZM72.6095 27.2446C74.6638 32.9196 75.9306 39.3957 76.1976 46.3158H51.7647V27.2446H72.6095ZM46.3158 5.6696V21.7957H27.7922C32.2494 12.903 38.8317 6.85746 46.3158 5.6696ZM46.3158 27.2446V46.3158H21.8828C22.1498 39.3957 23.4167 32.9196 25.471 27.2446H46.3158ZM16.4394 46.3158H5.58514C6.0156 39.3957 8.03988 32.9196 11.3256 27.2446H19.7823C17.8615 33.045 16.69 39.491 16.4394 46.3158ZM21.8828 51.7647H46.3158V70.8359H25.471C23.4167 65.1609 22.1498 58.6876 21.8828 51.7647ZM46.3158 76.2848V92.4109C38.8317 91.2203 32.2494 85.1775 27.7922 76.2848H46.3158ZM51.7647 92.4109V76.2848H70.291C65.8311 85.1775 59.2488 91.2203 51.7647 92.4109ZM51.7647 70.8359V51.7647H76.2004C75.9306 58.6876 74.6665 65.1609 72.6123 70.8359H51.7647ZM81.6438 51.7647H92.4926C92.0649 58.6876 90.0406 65.1609 86.7522 70.8359H78.2955C80.2189 65.0355 81.3905 58.5922 81.6438 51.7647ZM81.6438 46.3158C81.3905 39.491 80.2189 33.045 78.2955 27.2446H86.7522C90.0406 32.9196 92.0649 39.3957 92.4926 46.3158H81.6438ZM83.0388 21.7957H76.2194C74.266 17.4256 71.844 13.5814 69.0841 10.3557C74.503 13.1673 79.2518 17.0742 83.0388 21.7957ZM28.9964 10.3557C26.2338 13.5814 23.8118 17.4256 21.8583 21.7957H15.0417C18.8287 17.0742 23.5775 13.17 28.9964 10.3557ZM15.0417 76.2848H21.8611C23.8118 80.6549 26.2338 84.4991 28.9964 87.7221C23.5775 84.9105 18.8287 81.0063 15.0417 76.2848ZM69.0841 87.7221C71.8467 84.4964 74.266 80.6549 76.2194 76.2848H83.0388C79.2518 81.0063 74.503 84.9105 69.0841 87.7221Z" fill="#3B88C3"/>
</g>
<path d="M117.084 45.9111C131.452 43.5164 145.478 38.3766 159.801 35.5539C168.224 33.8941 177.078 32.7246 185.645 34.0425C192.89 35.1571 199.37 38.8925 204.947 43.5324C213.222 50.4177 217.683 60.6896 217.683 71.3829C217.683 74.2997 217.508 77.8911 215.13 79.9561C211.801 82.8472 205.834 83.9023 201.726 84.6639C193.591 86.1719 174.703 85.9283 176.997 72.82C179.874 56.3826 195.187 46.7234 209.357 40.9555C226.919 33.8073 245.848 31.055 264.711 32.085C269.493 32.3462 276.158 33.7152 280.143 36.1672" stroke="black" stroke-width="3" stroke-linecap="round"/>
<defs>
<clipPath id="clip0_61_128">
<rect width="98.0805" height="98.0805" fill="white" transform="translate(297.92)"/>
</clipPath>
<clipPath id="clip1_61_128">
<rect width="98.0805" height="98.0805" fill="white"/>
</clipPath>
</defs>
</svg>
